<?xml version="1.0" standalone="no"?>
<!DOCTYPE svg PUBLIC "-//W3C//DTD SVG 1.1//EN" "http://www.w3.org/Graphics/SVG/1.1/DTD/svg11.dtd" >
<svg xmlns="http://www.w3.org/2000/svg" xmlns:xlink="http://www.w3.org/1999/xlink" version="1.1">
<metadata>
Created by FontForge 20170731 at Sat Dec  3 10:33:26 2016
 By Aleksey,,,
Copyright (c) 2016 by Kimchi Lee/Christine Lee. All rights reserved.
</metadata>
<defs>
<font id="Quezon" horiz-adv-x="297" >
  <font-face 
    font-family="Quezon"
    font-weight="400"
    font-stretch="normal"
    units-per-em="1000"
    panose-1="0 0 0 0 0 0 0 0 0 0"
    ascent="750"
    descent="-250"
    x-height="455"
    cap-height="668"
    bbox="-15 -265.267 992 794.6"
    underline-thickness="50"
    underline-position="-150"
    unicode-range="U+000D-2044"
  />
<missing-glyph 
 />
    <glyph glyph-name=".notdef" 
 />
    <glyph glyph-name=".null" horiz-adv-x="0" 
 />
    <glyph glyph-name="nonmarkingreturn" unicode="&#xd;" 
 />
    <glyph glyph-name="NULL" horiz-adv-x="0" 
 />
    <glyph glyph-name="NULL" horiz-adv-x="0" 
 />
    <glyph glyph-name="space" unicode=" " 
 />
    <glyph glyph-name="exclam" unicode="!" horiz-adv-x="196" 
d="M96 101q21 -2 31 -18t3 -37t-26 -35t-40 -12q-20 2 -30 18t-4 37q7 21 26.5 35t39.5 12zM47 198l-22 437l111 45l-19 -453z" />
    <glyph glyph-name="quotedbl" unicode="&#x22;" horiz-adv-x="269" 
d="M140 683l79 32l-15 -177l-46 -18zM43 520l-18 163l79 32l-15 -177z" />
    <glyph glyph-name="numbersign" unicode="#" horiz-adv-x="562" 
d="M84 416h448l-34 -79h-448zM34 246h448l-34 -79h-448zM20 0l180 531l101 41l-181 -531zM220 0l180 531l101 41l-180 -531z" />
    <glyph glyph-name="ampersand" unicode="&#x26;" horiz-adv-x="661" 
d="M563 231q-19 -21 -34 -37q-7 -7 -13 -13.5t-11 -11.5l-11 -11l117 -118l-86 -35l-93 94l-4 -4l-4 -4h-1q-13 -11 -28 -22l-14 -10l-14 -10q-41 -25 -78.5 -35t-70.5 -9t-61 10.5t-50 23.5q-45 27 -65.5 71.5t-14.5 92.5q8 54 44 94t89 65q-23 19 -38 44q-14 21 -21.5 49
t0.5 63q8 34 22 57.5t33 39t42 25.5t48 16q27 7 61.5 6.5t65.5 -13t52 -38.5t21 -70q0 -35 -17 -58.5t-43 -40.5t-58.5 -31t-62.5 -29l209 -204q6 6 14.5 15t16.5 17q10 10 20 21h38zM249 630q-29 -9 -51 -30t-28 -51t9.5 -67t61.5 -77q7 3 17 7q16 7 48 24q31 17 43.5 40
t12.5 64q0 21 -6.5 41t-20.5 34t-35.5 19t-50.5 -4zM121 194q0 -56 26 -91.5t67 -47t93 3.5t104 60l-227 220l-8 -8t-7 -6q-22 -23 -35 -56.5t-13 -74.5z" />
    <glyph glyph-name="quotesingle" unicode="'" horiz-adv-x="154" 
d="M43 520l-18 163l79 32l-15 -177l-46 -18v0z" />
    <glyph glyph-name="comma" unicode="," horiz-adv-x="194" 
d="M120 90q14 -13 13.5 -33t-7.5 -40t-17 -38t-16 -26l-29 -12q1 1 5.5 11.5t7.5 21.5t0.5 19.5t-15.5 6.5q-9 -2 -16.5 2.5t-12.5 13t-6.5 18.5t1.5 21q7 21 26.5 35t39.5 12q7 0 12 -2.5t10 -5.5z" />
    <glyph glyph-name="hyphen" unicode="-" horiz-adv-x="539" 
d="M489 359l-34 -79h-430l34 79h430z" />
    <glyph glyph-name="period" unicode="." horiz-adv-x="181" 
d="M94 101q21 -2 31 -18t3 -37t-26 -35t-40 -12q-20 2 -30 18t-4 37q7 21 26.5 35t39.5 12z" />
    <glyph glyph-name="slash" unicode="/" horiz-adv-x="351" 
d="M10 0l230 674l101 41l-231 -674l-100 -41v0z" />
    <glyph glyph-name="zero" unicode="0" horiz-adv-x="561" 
d="M296 662q50 0 91.5 -26t70.5 -70t43 -104t8 -127q-6 -68 -30 -127.5t-60.5 -104t-82.5 -70t-96 -25.5t-91.5 25.5t-70.5 70t-43 104t-8 127.5q6 67 29.5 127t60 104t83 70t96.5 26zM268 41q31 0 58 23t47 63t32 93.5t12 114.5t-12 114.5t-32 93.5t-47 63t-58 23t-58 -23
t-47.5 -63t-32 -93.5t-11.5 -114.5t11.5 -114.5t32 -93.5t47.5 -63t58 -23z" />
    <glyph glyph-name="one" unicode="1" horiz-adv-x="285" 
d="M25 524v43l210 80v-1v-43v-571l-111 -45v574l-99 -37v0z" />
    <glyph glyph-name="two" unicode="2" horiz-adv-x="558" 
d="M441 333q-48 -50 -95 -93.5t-87 -80t-72 -64.5t-50 -46l365 -1l-30 -48h-447q86 84 157 161q30 33 60.5 68t56.5 68t45 62.5t28 52.5q17 45 10 82t-30 62t-58 36t-75 3q-24 -6 -41 -16.5t-29.5 -21.5t-22 -22.5t-17.5 -20.5l-54 -19q31 60 79.5 100.5t121.5 50.5
q51 7 95 -2.5t77.5 -31t54 -53t24.5 -68.5t-11.5 -77.5t-54.5 -80.5z" />
    <glyph glyph-name="three" unicode="3" horiz-adv-x="544" 
d="M426 395q18 -17 22 -23q26 -30 37.5 -67.5t6.5 -80.5q-6 -46 -30.5 -86.5t-61.5 -71t-83.5 -48t-96.5 -17.5q-67 0 -118 29.5t-77 77.5l99 50q7 -28 19 -52t27.5 -42t35 -28t42.5 -10q30 0 56 15.5t45.5 42.5t31 63t11.5 77q0 59 -23 106t-60 70q-15 9 -35.5 12.5
t-40 3.5t-35 -1.5t-21.5 -1.5q-16 -3 -30.5 -6t-28.5 -8l233 198h-300l87 50h352l-223 -189q13 -1 31 -4t38 -9.5t42 -18t44 -29.5q1 -1 1.5 -1t1.5 -1h1v0z" />
    <glyph glyph-name="four" unicode="4" horiz-adv-x="576" 
d="M438 512v-293h88v-51h-88v-139l-110 -45v184h-303l309 502v-88l-219 -363h213v248l110 45v0z" />
    <glyph glyph-name="five" unicode="5" horiz-adv-x="527" 
d="M271 422q48 0 87.5 -16.5t67.5 -45t41.5 -67t7.5 -82.5t-29 -82.5t-58 -67.5t-79 -45.5t-92 -16.5q-69 0 -120 33t-72 87l92 46q5 -30 17 -55t29 -43t37.5 -28.5t43.5 -10.5q27 0 51 14.5t42 39t28.5 58t10.5 71.5q0 37 -10.5 70.5t-28.5 58t-42 39t-51 14.5
q-22 0 -39 -4.5t-29 -9.5q-14 -6 -25 -14l-110 -45l35 275l87 50h302l-86 -50h-198l-25 -192q27 10 56.5 14.5t58.5 4.5z" />
    <glyph glyph-name="six" unicode="6" horiz-adv-x="540" 
d="M284 424q48 0 88 -16.5t67.5 -45t41 -67t7.5 -82.5t-29 -82.5t-57.5 -67.5t-78.5 -45.5t-92 -16.5t-88 16.5t-67.5 45.5t-41 67.5t-7.5 82.5q0 5 1 10.5t3 11.5v1q2 5 3.5 11t3.5 11q19 61 49 115t65 99t70.5 80.5t65 61t49 39.5t22.5 16v-43q-15 -12 -36.5 -34
t-45.5 -51t-48.5 -64.5t-45.5 -72.5q49 20 101 20zM257 30q27 0 51.5 14.5t42.5 39t28.5 58t10.5 71.5q0 37 -10.5 70.5t-28.5 58t-42.5 39t-51.5 14.5q-40 0 -72 -29.5t-48 -77.5q-2 -6 -2 -11h-1q-9 -30 -9 -64q0 -38 10.5 -71.5t28.5 -58t42 -39t51 -14.5z" />
    <glyph glyph-name="seven" unicode="7" horiz-adv-x="526" 
d="M25 556l44 100h407l-269 -637l-60 -25l237 562h-359v0z" />
    <glyph glyph-name="eight" unicode="8" horiz-adv-x="490" 
d="M360 338q41 -24 62.5 -65t15.5 -90q-5 -35 -22.5 -65.5t-44.5 -54.5q-42 -31 -82.5 -44t-77 -13.5t-67 8.5t-52.5 23q-35 25 -53 63t-12 83q7 48 37 87.5t75 64.5q-33 16 -52.5 35.5t-28.5 40t-10.5 42t1.5 41.5q6 43 36 73.5t68.5 48.5t78 24t65.5 0q55 -13 81 -54
t19 -92q-5 -41 -30.5 -74.5t-63.5 -54.5q15 -6 29 -12t26 -14q1 0 1 -0.5t1 -0.5zM133 540q-11 -38 -2.5 -63.5t28.5 -43.5t49 -30.5t60 -23.5q23 16 38 46.5t15 68.5q0 37 -14.5 67t-37.5 47q-18 12 -39.5 10t-41 -12.5t-35 -28t-20.5 -37.5zM300 55q23 21 36.5 54t13.5 72
q0 8 -5 23.5t-21 33.5t-46.5 37.5t-82.5 36.5q-5 2 -10 3.5t-10 3.5q-27 -20 -43.5 -55.5t-16.5 -80.5q0 -46 17.5 -82.5t46.5 -56.5q24 -14 56 -14.5t65 25.5z" />
    <glyph glyph-name="nine" unicode="9" horiz-adv-x="540" 
d="M284 669q48 0 88 -16.5t67.5 -45t41 -67t7.5 -82.5q-2 -14 -4 -22v-1q-3 -13 -7 -23q-19 -61 -49 -115t-65 -99t-70.5 -80.5t-65 -61t-49.5 -39.5t-23 -16v44q15 12 36.5 34t46 51t49 64t45.5 73q-24 -10 -49.5 -15.5t-51.5 -5.5q-48 0 -88 16.5t-67.5 45.5t-41 67.5
t-7.5 82.5q5 44 28 82.5t58 67t79 45t92 16.5zM377 382q0 1 2.5 8.5t4.5 18t4 23.5t2 26q0 38 -10.5 71t-28.5 58t-42.5 39t-51.5 14t-51 -14t-42 -39t-28.5 -58t-10.5 -71t10.5 -71.5t28.5 -58t42 -39t51 -14.5q41 0 73 29.5t47 77.5z" />
    <glyph glyph-name="colon" unicode=":" horiz-adv-x="206" 
d="M94 101q21 -2 31 -18t3 -37t-26 -35t-40 -12q-20 2 -30 18t-4 37q7 21 26.5 35t39.5 12zM94 442q21 -2 31 -18t3 -38q-7 -21 -26 -35t-40 -12q-20 2 -30 18t-4 37q7 21 26.5 35.5t39.5 12.5z" />
    <glyph glyph-name="semicolon" unicode=";" horiz-adv-x="209" 
d="M120 90q14 -13 13.5 -33t-7.5 -40t-17 -38t-16 -26l-29 -12q1 1 5.5 11.5t7.5 21.5t0.5 19.5t-15.5 6.5q-9 -2 -16.5 2.5t-12.5 13t-6.5 18.5t1.5 21q7 21 26.5 35t39.5 12q7 0 12 -2.5t10 -5.5zM94 443q21 -2 31 -18t3 -38q-7 -21 -26 -35t-40 -12q-20 2 -30 18t-4 37
q7 21 26.5 35.5t39.5 12.5z" />
    <glyph glyph-name="question" unicode="?" horiz-adv-x="458" 
d="M226 101q21 -2 31 -18t3 -37t-26 -35t-40 -12q-20 2 -30.5 18t-3.5 37t26.5 35t39.5 12zM221 681q38 0 72 -9t59.5 -26.5t40.5 -43t15 -58.5t-13.5 -60t-32 -48.5t-39 -39.5t-34.5 -33q-17 -17 -25.5 -37.5t-12 -39t-4 -33t-0.5 -20.5l-83 -34q0 5 1.5 22.5t8.5 40.5
t22 48.5t42 48.5q29 24 45 51.5t24 53t9.5 45t1.5 27.5q0 64 -27.5 92t-69.5 28t-68 -32t-34 -83l-94 -37q3 37 19.5 69t43 56t61 38t72.5 14z" />
    <glyph glyph-name="A" unicode="A" horiz-adv-x="668" 
d="M282 632l67 27l289 -626l-95 -39l-89 192h-300l-65 -158l-69 -28zM175 236h256l-135 294z" />
    <glyph glyph-name="B" unicode="B" horiz-adv-x="575" 
d="M353 420q38 -3 72 -16.5t59.5 -37t40.5 -57t15 -75.5q0 -48 -22 -83.5t-58.5 -61t-83 -41.5t-94.5 -26q-114 -23 -257 -21v33v358v237q32 6 70 13q32 6 73.5 12.5t86.5 13.5q26 3 64 3.5t73 -9.5t60 -34t25 -69q0 -26 -10 -47t-27 -38t-39.5 -30.5t-47.5 -23.5zM131 403
q65 4 116 20q22 7 43 16.5t37.5 23.5t26.5 33t10 43q0 39 -13 61t-34 31t-47.5 9t-52.5 -4q-23 -4 -39 -5.5t-27 -3.5q-12 -2 -20 -2v-222zM131 31q79 1 141 23q27 9 52.5 23.5t45.5 36t32 50.5t12 68q0 45 -12.5 76.5t-33.5 50t-47.5 25.5t-53.5 4q-28 -3 -52 -5.5
t-43 -4.5q-22 -3 -41 -4v-296v-47z" />
    <glyph glyph-name="C" unicode="C" horiz-adv-x="702" 
d="M384 640q-54 0 -97.5 -23.5t-74 -64t-46.5 -96t-16 -118.5q0 -64 17 -117.5t49.5 -92t80 -60t108.5 -21.5q22 0 52.5 7t63 23t63.5 40t54 59l24 -16q-24 -37 -60.5 -67t-79 -51.5t-89.5 -33.5t-93 -12q-70 0 -130.5 27t-104 73.5t-66.5 108.5t-18 133q4 71 34.5 133
t79.5 108.5t112.5 73.5t133.5 27q41 0 82 -9.5t78.5 -27t69 -42.5t53.5 -56l-104 -42q-14 32 -29.5 57.5t-36 43t-47.5 27t-63 9.5z" />
    <glyph glyph-name="D" unicode="D" horiz-adv-x="623" 
d="M215 660q31 1 71 0t82 -9t82.5 -25t72 -47.5t51 -77t19.5 -112.5q0 -81 -24.5 -141t-64.5 -102.5t-91 -69.5t-104 -43q-125 -38 -284 -32v641l66 8q29 3 62 5.5t62 4.5zM128 36q95 4 171 42q32 16 62.5 41t54.5 61.5t39 86t15 114.5q0 83 -27 134t-69.5 78t-93.5 33.5
t-99 1.5l-53 -7v-585z" />
    <glyph glyph-name="E" unicode="E" horiz-adv-x="516" 
d="M151 351v-309h345l-73 -42h-383v671h456l-73 -42h-272v-236h231v0l-72 -42h-159v0z" />
    <glyph glyph-name="F" unicode="F" horiz-adv-x="480" 
d="M40 0v671h430l-73 -42h-246v-236h228l-73 -42h-155v-306l-111 -45v0z" />
    <glyph glyph-name="G" unicode="G" horiz-adv-x="702" 
d="M384 640q-54 0 -97.5 -23.5t-74 -64t-46.5 -96t-16 -118.5q0 -64 17 -117t49.5 -91.5t80 -60t108.5 -21.5q27 0 62.5 7.5t72.5 27.5v231l110 45v-259q-59 -29 -116 -52q-24 -10 -50.5 -19t-52 -16.5t-49 -12t-42.5 -4.5q-70 0 -130.5 27t-104 73.5t-66.5 108.5t-18 133
q4 71 34.5 133t79.5 108.5t112.5 73.5t133.5 27q41 0 82 -9.5t78.5 -27t69 -42.5t53.5 -56l-104 -42q-14 32 -29.5 57.5t-36 43t-47.5 27t-63 9.5z" />
    <glyph glyph-name="H" unicode="H" horiz-adv-x="620" 
d="M469 371v254l111 46v-626l-111 -45v329h-318v-284l-111 -45v625l111 45v-299h318v0z" />
    <glyph glyph-name="I" unicode="I" horiz-adv-x="226" 
d="M40 0v623l111 45v-623l-111 -45v0z" />
    <glyph glyph-name="J" unicode="J" horiz-adv-x="339" 
d="M148 626l111 45v-553h-1q0 -47 -16 -72.5t-58 -41.5q-22 -9 -49 -9t-52 5q-29 4 -58 14v27q39 -8 63 -5t37 13.5t18 25.5t5 32v519z" />
    <glyph glyph-name="K" unicode="K" horiz-adv-x="590" 
d="M536 658l-267 -251l306 -368l-97 -39l-283 337l-40 -37v0l-19 -18v-242l-111 -45v630l111 46v-320l328 307h72v0z" />
    <glyph glyph-name="L" unicode="L" horiz-adv-x="508" 
d="M136 669v-627h356l-69 -42h-398v624l111 45v0z" />
    <glyph glyph-name="M" unicode="M" horiz-adv-x="851" 
d="M409 124l225 485l142 59v-623l-111 -45v552l-239 -512l-76 -31l-262 539v-529l-48 -19v621l114 47l255 -544v0z" />
    <glyph glyph-name="N" unicode="N" horiz-adv-x="675" 
d="M572 166v481l48 20v-643l-60 -24l-471 522v-502l-49 -20v640l74 30l458 -504v0z" />
    <glyph glyph-name="O" unicode="O" horiz-adv-x="736" 
d="M379 679q70 0 130 -27t103 -73.5t66 -108.5t19 -133t-34.5 -133t-79 -108.5t-111.5 -73.5t-133 -27t-130 27t-103.5 73.5t-66.5 108.5t-18 133q4 71 34 133t79 108.5t112 73.5t133 27zM359 30q43 0 81 24t66.5 65.5t45 97.5t16.5 120q0 63 -16.5 119t-45 98t-66.5 66
t-81 24q-44 0 -82 -24t-66 -66t-44.5 -98t-16.5 -119q0 -64 16.5 -120t44.5 -97.5t66 -65.5t82 -24z" />
    <glyph glyph-name="P" unicode="P" horiz-adv-x="522" 
d="M286 684q45 5 87 -3t74.5 -29t52 -55.5t19.5 -82.5q0 -42 -16.5 -74t-43.5 -56t-61.5 -40.5t-70.5 -26.5q-84 -25 -192 -28v-246l-105 -43v268v374v3q40 8 83 15q37 6 82.5 12.5t90.5 11.5zM135 324q72 2 129 22q24 9 47.5 22t42 33t29.5 47.5t11 63.5q0 45 -12.5 72
t-33 41t-46.5 17t-53 0t-48.5 -7t-35.5 -7q-18 -4 -30 -7v-284v-13z" />
    <glyph glyph-name="Q" unicode="Q" horiz-adv-x="802" 
d="M626 78q23 -14 37 -23t27 -13.5t29.5 -3.5t44.5 8l13 -16q-29 -14 -56 -25q-24 -10 -50.5 -17.5t-47.5 -7.5q-31 0 -59.5 13.5t-63.5 37.5q-35 -17 -73 -26t-78 -9q-70 0 -130 27t-103.5 73.5t-66.5 108.5t-18 133q4 71 34 133t79 108.5t112 73.5t133 27t130 -27
t103 -73.5t66 -108.5t19 -133q-5 -70 -34 -131.5t-77 -107.5zM160 338q0 -64 16.5 -120t44.5 -97.5t66 -65.5t82 -24q24 0 46.5 7.5t42.5 21.5l-143 100l114 55l102 -71q22 40 34.5 89t12.5 105q0 63 -16.5 119t-45 98t-66.5 66t-81 24q-44 0 -82 -24t-66 -66t-44.5 -98
t-16.5 -119z" />
    <glyph glyph-name="R" unicode="R" horiz-adv-x="600" 
d="M529 514q0 -42 -16.5 -73.5t-43 -55.5t-61 -40.5t-70.5 -26.5l237 -280l-101 -42l-247 299q-18 -2 -33 -3t-26 -2q-13 -1 -23 -1v-246l-105 -43v268v374v3q40 8 83 15q37 6 82.5 12.5t90.5 11.5t87 -3t74.5 -29t52 -55.5t19.5 -82.5zM145 323q72 2 129 22q24 9 47.5 22.5
t42 33.5t29.5 47.5t11 63.5q0 45 -12.5 72t-33 41t-46.5 17t-53 0t-48.5 -7t-35.5 -7q-18 -4 -30 -7v-298z" />
    <glyph glyph-name="S" unicode="S" horiz-adv-x="518" 
d="M433 301q29 -25 44 -52q16 -30 16 -62q0 -40 -15 -74q-17 -35 -46 -60t-76 -40q-45 -15 -105 -15q-18 0 -47.5 4t-62 16.5t-63 35t-51.5 59.5l113 45q5 -17 18.5 -43.5t37.5 -46.5v-1q2 0 4 -2q1 -1 2 -1.5t2 -1.5q9 -7 21.5 -14t29 -11t37.5 -2t47 13q39 17 52 51t0 71
q-1 7 -6 16l-2 4t-4 6q-1 2 -2.5 3.5t-2.5 3.5l-12 15q-2 2 -5 4.5t-6 5.5q-6 6 -10 9h-1l-3 3q-13 10 -27.5 19t-31.5 18q-17 8 -34 17t-34 17l-34 18t-34 19q-35 20 -59 42q-28 25 -42 53q-16 28 -16 66q0 37 14 70q15 32 43 56q29 25 69 38q20 6 44 9.5t50 3.5
q77 0 129 -29t81 -79l-104 -41q-3 7 -9 18.5t-15 23.5t-20 23.5t-25 20.5q0 1 -1 1q-32 23 -68 22.5t-62 -17.5q-24 -17 -34.5 -46.5t-0.5 -60.5q2 -6 3 -8q0 -2 1 -3q3 -8 9 -15q8 -11 18.5 -21t24.5 -19q26 -19 61 -37q17 -9 34.5 -18t35.5 -18q17 -10 34.5 -19t34.5 -20
q17 -10 32 -21t29 -22z" />
    <glyph glyph-name="T" unicode="T" horiz-adv-x="592" 
d="M15 630l70 42h531l-68 -42h-178v-584l-110 -46v630h-245v0z" />
    <glyph glyph-name="U" unicode="U" horiz-adv-x="639" 
d="M478 623l111 45v-623l-111 -45v86q-28 -21 -61.5 -37.5t-69 -27.5t-72.5 -17t-71 -6q-35 0 -66.5 10.5t-55.5 34t-38 61.5t-14 92v430l110 45v-427q0 -59 7.5 -98t22.5 -62.5t36.5 -33.5t49.5 -10q19 0 47.5 6.5t59.5 18.5t61.5 29.5t53.5 39.5v489z" />
    <glyph glyph-name="V" unicode="V" horiz-adv-x="667" 
d="M370 108l219 535l63 27l-265 -637l-81 -33l-281 629l98 40l247 -561v0z" />
    <glyph glyph-name="W" unicode="W" horiz-adv-x="1007" 
d="M724 125l205 518l63 27l-243 -637l-82 -33l-164 410l-144 -377l-81 -33l-253 629l98 40l211 -544l141 356l-60 148l97 40l212 -544v0z" />
    <glyph glyph-name="X" unicode="X" horiz-adv-x="695" 
d="M652 671l-247 -289l260 -341l-101 -41l-229 301l-225 -265l-90 -36l289 338l-221 292l100 41v0l190 -253l184 216l90 37v0z" />
    <glyph glyph-name="Y" unicode="Y" horiz-adv-x="627" 
d="M331 338l203 298l83 34l-254 -372v-253l-111 -45v287l-237 347l88 36l228 -332v0z" />
    <glyph glyph-name="Z" unicode="Z" horiz-adv-x="635" 
d="M91 670h534l-465 -573h465v0l-42 -97h-568l475 577h-446l47 93v0z" />
    <glyph glyph-name="backslash" unicode="\" horiz-adv-x="329" 
d="M10 683l75 32l234 -684l-75 -31v0l-234 683v0z" />
    <glyph glyph-name="a" unicode="a" horiz-adv-x="566" 
d="M466 83q0 -15 1.5 -26.5t8.5 -17.5t21 -6t39 8v-29q-2 -1 -4.5 -2t-4.5 -2q-39 -12 -76 -14q-27 0 -46 9q-1 0 -2 1q-6 3 -10 7q-1 0 -2 1q-4 3 -10 11q-4 5 -7 13q-1 1 -1 2t-1 2l-3 12q0 2 -0.5 3t-0.5 3q-1 3 -1 11q-14 -12 -43 -33.5t-76 -34.5q-27 -7 -59.5 -4
t-64 18t-57.5 44t-39 74q-10 36 -6 73.5t21.5 73.5t48.5 68t75 56q35 19 86.5 33.5t98.5 23.5q55 11 114 18v-396zM366 427q-45 -12 -86.5 -26t-74.5 -35t-55.5 -52t-28.5 -77q-6 -48 7 -84t36.5 -59.5t53.5 -32.5t58 -2q34 8 56.5 25.5t33.5 28.5v314z" />
    <glyph glyph-name="b" unicode="b" horiz-adv-x="537" 
d="M322 469q87 0 130 -53.5t43 -144.5q0 -67 -26.5 -119.5t-68.5 -89t-93 -55.5t-100 -19q-36 0 -69 6.5t-58 14.5q-30 9 -55 21v642l100 41v-340q24 27 55 48q26 18 62 33t80 15zM208 32q29 0 61 16t58.5 46.5t44 74.5t17.5 100q0 81 -34 115.5t-87 34.5q-26 0 -51.5 -14
t-45.5 -31q-24 -19 -46 -44v-286q10 -3 22 -6q11 -2 26 -4t35 -2z" />
    <glyph glyph-name="c" unicode="c" horiz-adv-x="476" 
d="M248 439q-29 0 -54.5 -16t-44 -43.5t-29.5 -65t-11 -79.5t14.5 -78.5t37.5 -64t51.5 -43t57.5 -15.5q38 0 66.5 14.5t47.5 31.5q22 20 36 46l31 -21q-34 -53 -89 -85t-120 -32q-49 0 -92.5 20t-75 54t-49 78.5t-14.5 94.5q3 49 24 93t55 76t78.5 51t93.5 19
q61 0 110.5 -28t78.5 -76l-91 -37q-9 23 -18 42.5t-21.5 33.5t-30 22t-42.5 8z" />
    <glyph glyph-name="d" unicode="d" horiz-adv-x="517" 
d="M372 671l100 41v-670l-100 -41v68q-14 -12 -43 -33.5t-76 -34.5q-27 -7 -59.5 -4t-64 18t-57.5 44t-39 74q-10 36 -6 73.5t21.5 73.5t48.5 68t75 56q19 10 43.5 19t51 16.5t53.5 13.5t52 11v207zM371 427q-45 -12 -86.5 -26t-74.5 -35t-55.5 -52t-28.5 -77q-6 -48 7 -84
t36.5 -59.5t53.5 -32.5t58 -2q34 8 56.5 25.5t33.5 28.5v314z" />
    <glyph glyph-name="e" unicode="e" horiz-adv-x="512" 
d="M459 370q9 -14 13 -24q3 -6 5 -12l-355 -146q14 -66 54 -106t89 -40q39 0 71 14t55 31q26 19 48 45l30 -20q-42 -54 -102 -85t-125 -31q-49 0 -91 19t-72 51t-46.5 75.5t-13.5 93.5q3 49 24 93t55 76t78.5 51t93.5 19q61 0 110.5 -28t78.5 -76zM117 232q23 9 54 22
t65 26.5t68 27.5t64 26q-9 23 -18 42t-21.5 33t-30 22t-42.5 8q-29 0 -54.5 -16t-44 -43.5t-29.5 -65t-11 -79.5v-3z" />
    <glyph glyph-name="f" unicode="f" horiz-adv-x="388" 
d="M302 649q16 -4 28 -10t20 -12.5t12.5 -12.5t6.5 -10q10 -14 10 -34v-10l-102 -42v49q0 15 -2 26.5t-7 19t-14.5 9.5t-25.5 -2q-16 -5 -24.5 -16t-12.5 -24.5t-5 -27t-1 -22.5v-55v-78v-4l178 67v-44l-178 -67v-340l-101 -41v343l-64 -24v43l64 24v43v60q0 48 13 82
t33.5 56t46 34t49.5 17.5t44.5 5t31.5 -2.5z" />
    <glyph glyph-name="g" unicode="g" horiz-adv-x="507" 
d="M167 403q35 19 86.5 33.5t98.5 23.5q55 11 114 18v-515q0 -72 -29 -119t-73 -73t-96 -33t-98 1q-44 7 -67 26.5t-34 39.5q-12 24 -14 52l102 41q0 -14 -0.5 -30.5t0.5 -18.5q0 -26 11 -43.5t28.5 -28t39.5 -13.5t44 2q44 11 64.5 46t20.5 77v178q-14 -13 -42.5 -34
t-74.5 -33q-27 -7 -59.5 -4t-64 18t-57.5 44t-39 74q-10 36 -6 73.5t21.5 73.5t48.5 68t75 56zM365 426q-45 -12 -86.5 -26t-74.5 -35t-55 -52t-28 -77q-6 -48 7 -84t36.5 -59.5t53.5 -32.5t58 -2q33 8 55 25t34 28v315z" />
    <glyph glyph-name="h" unicode="h" horiz-adv-x="508" 
d="M457 408q1 -1 1 -5q1 -5 1.5 -10t0.5 -10v-46v-14v-39v-243l-101 -41v257v49v6v48q0 19 -3 33.5t-15.5 20t-38 0t-71.5 -26.5q-25 -12 -44 -23q-17 -9 -32 -18.5t-20 -13.5v-291l-100 -41v7v408v255l100 41v-255v-83q26 16 53 31q23 13 52 26.5t57 22.5q20 6 39.5 10
t37.5 4q27 2 47 -9q2 0 2 -1q4 -2 10 -6l2 -2q6 -5 10 -11q4 -5 7 -13q1 -1 1 -2t1 -2q2 -8 3 -13z" />
    <glyph glyph-name="i" unicode="i" horiz-adv-x="191" 
d="M72 632q-20 2 -30 18t-4 37q7 22 26.5 36t39.5 12q21 -2 31 -18t3 -37q-7 -22 -26 -36t-40 -12zM39 426l100 41v-426l-100 -41v426z" />
    <glyph glyph-name="j" unicode="j" horiz-adv-x="248" 
d="M89 633q-20 2 -30 18t-3 37q6 22 25.5 36t39.5 12q21 -2 31 -18t3 -37q-7 -22 -26 -36t-40 -12zM55 427l101 41v-608q0 -45 -14.5 -68.5t-53.5 -39.5q-20 -8 -38.5 -11.5t-32.5 -4.5q-17 -1 -32 0v22q28 0 42.5 8.5t20.5 21.5t6.5 29t0.5 31v424v155z" />
    <glyph glyph-name="k" unicode="k" horiz-adv-x="460" 
d="M441 476l-227 -184l246 -284l-97 -40l-242 279v-238l-101 -41v701l101 41v-438l254 204h66v0z" />
    <glyph glyph-name="l" unicode="l" horiz-adv-x="195" 
d="M20 -7v677l100 41v-677l-100 -41v0z" />
    <glyph glyph-name="m" unicode="m" horiz-adv-x="829" 
d="M777 408q0 -3 1 -5q1 -5 1 -10v-10v-46v-14v-39v-243l-101 -41v256v50v6v48q0 19 -2.5 33.5t-15 20t-38 0.5t-71.5 -26q-43 -23 -65.5 -37t-30.5 -22v-11v-39v-238l-101 -41v257v49v6v48q0 19 -3 33.5t-15.5 20.5t-38 0.5t-71.5 -25.5q-25 -13 -44 -24q-17 -10 -32 -19
t-20 -13v-292l-100 -41v415l100 41v-83q26 16 53 31q23 13 52 26.5t57 22.5q20 6 39.5 10t37.5 4q27 2 47 -9q2 0 2 -1q4 -2 10 -6l2 -2q6 -5 10 -11q4 -5 7 -13q1 -1 1 -2t1 -2q2 -8 3 -13q1 -1 1 -5q1 -5 1.5 -10t0.5 -10v-14q26 17 53 33q23 14 52 28t57 23q19 6 38.5 10
t38.5 4q13 0 24.5 -2t22.5 -7l2 -1q2 -2 5 -3t5 -3l2 -2l5 -5t5 -6t3.5 -6l3.5 -7q0 -1 0.5 -2t0.5 -2q2 -5 4 -13z" />
    <glyph glyph-name="n" unicode="n" horiz-adv-x="505" 
d="M452 408q1 -1 1 -5q1 -5 1.5 -10t0.5 -10v-46v-14v-39v-243l-101 -41v257v49v6v48q0 19 -3 33.5t-15.5 20.5t-38 0.5t-71.5 -25.5q-25 -13 -44 -24q-17 -10 -32 -19t-20 -13v-292l-100 -41v415l100 41v-83q26 16 53 31q23 13 52 26.5t57 22.5q20 6 39.5 10t37.5 4
q27 2 47 -9q2 0 2 -1q4 -2 10 -6l2 -2q6 -5 10 -11q4 -5 7 -13q1 -1 1 -2t1 -2q2 -8 3 -13z" />
    <glyph glyph-name="o" unicode="o" horiz-adv-x="541" 
d="M282 474q49 0 91 -19t72 -51t46.5 -76t13.5 -93q-3 -50 -24 -93.5t-55 -75.5t-78.5 -51t-93.5 -19t-91 19t-72 51t-46.5 75.5t-13.5 93.5q3 49 24 93t55 76t78.5 51t93.5 19zM268 31q29 0 54.5 16t44 44t29.5 65t11 79t-11 79.5t-29.5 65t-44 43.5t-54.5 16t-54.5 -16
t-44 -43.5t-29.5 -65t-11 -79.5t11 -79t29.5 -65t44 -44t54.5 -16z" />
    <glyph glyph-name="p" unicode="p" horiz-adv-x="540" 
d="M317 468q87 0 130 -53.5t43 -144.5q0 -67 -26.5 -119.5t-68.5 -89t-93 -55.5t-100 -19q-22 0 -42 2.5t-39 6.5v-220l-101 -41v294v359v38l101 41v-95q24 27 55 48q26 18 61.5 33t79.5 15zM203 31q29 0 61 16t58.5 46.5t44 74.5t17.5 100q0 81 -34 115.5t-87 34.5
q-26 0 -51.5 -14t-45.5 -31q-24 -19 -45 -44v-274v-12q9 -3 21 -6q11 -2 26 -4t35 -2z" />
    <glyph glyph-name="q" unicode="q" horiz-adv-x="521" 
d="M172 403q35 19 86.5 33.5t98.5 23.5q55 11 114 18v-336v-366l-100 -41v313v19q-14 -13 -43 -34t-75 -33q-27 -7 -59.5 -4t-64 18t-57.5 44t-39 74q-10 36 -6 73.5t21.5 73.5t48.5 68t75 56zM371 426q-45 -12 -86.5 -26t-74.5 -35t-55.5 -52t-28.5 -77q-6 -48 7 -84
t36.5 -59.5t53.5 -32.5t58 -2q34 8 56.5 25.5t33.5 28.5v314z" />
    <glyph glyph-name="r" unicode="r" horiz-adv-x="413" 
d="M392 420q0 -2 0.5 -3t0.5 -3q1 -5 1.5 -10t0.5 -10v-30l-102 -41v48q0 19 -7 33t-24.5 19.5t-47.5 -0.5t-76 -26q-1 0 -2 -1q-2 -2 -6 -4v-351l-100 -41v426l100 41v-42l22.5 10t28.5 11.5t28.5 10l22.5 7.5q19 6 38.5 10t38.5 4q25 1 47 -8q1 -1 2 -1q3 -2 5.5 -3.5
t4.5 -3.5l2 -2q6 -4 10 -10v-1q3 -3 7 -13q1 -1 1 -2t1 -2l3 -12v0z" />
    <glyph glyph-name="s" unicode="s" horiz-adv-x="400" 
d="M327 223q20 -17 31 -38q12 -23 12 -51t-11 -55q-11 -26 -33 -45q-22 -18 -56 -30q-35 -11 -78 -11q-6 0 -21.5 1.5t-20.5 2.5q-20 3 -43 12q-11 5 -22 11.5t-22 14.5q-15 12 -29 29l83 34q5 -9 16.5 -23.5t28.5 -26t38.5 -15.5t47.5 10q5 3 6 4q6 5 10.5 10.5t8.5 11.5
q6 12 6 25q0 23 -11 37q-11 18 -28 29q-9 7 -19 12.5t-21 10.5t-22.5 10.5t-22.5 11.5q-12 5 -23.5 11t-22.5 12q-21 13 -40 30q-17 16 -28 39q-11 22 -11 52q0 28 12 52q11 22 33 41q21 16 50 27q15 5 31 7.5t33 2.5q1 0 2 -0.5t2 -0.5h2q22 0 41.5 -3t37.5 -10.5
t35.5 -20.5t36.5 -32l-82 -33q-9 12 -22.5 26.5t-30.5 24.5t-36.5 13t-40.5 -7q-5 -3 -11 -7q-11 -7 -18 -19q-6 -12 -6 -24q0 -20 11 -37q6 -8 14 -14.5t17 -13.5q10 -6 20.5 -12t23.5 -11q12 -5 24 -10.5t25 -11.5q13 -5 25.5 -11t24.5 -12q12 -7 23 -14t20 -16z" />
    <glyph glyph-name="t" unicode="t" horiz-adv-x="331" 
d="M192 471l114 43v-44l-114 -43v-299v1v-18v-12v-22q0 -15 1.5 -26.5t8 -17.5t20.5 -6t39 8v-29q-2 -1 -4.5 -2t-4.5 -2q-39 -13 -76 -14q-28 0 -47 9q-1 0 -2 1q-6 3 -10 7q-1 0 -2 1q-4 3 -10 11q-4 5 -7 13q-1 1 -1 2t-1 2l-3 12q0 2 -0.5 3t-0.5 3t-0.5 5t-0.5 6v54v13
v259l-81 -30v43l81 31v197l101 41v-21v-179z" />
    <glyph glyph-name="u" unicode="u" horiz-adv-x="510" 
d="M354 437l101 41v-436l-101 -41v101q-26 -16 -53 -31q-23 -13 -52 -27t-57 -22q-19 -6 -38.5 -10t-37.5 -4q-26 -1 -47 8q-1 1 -2 1q-3 2 -5.5 3.5t-5.5 3.5l-2 2l-4.5 4.5t-4.5 5.5l-1 1q-2 2 -3.5 5.5t-2.5 7.5q-2 2 -2 4l-2 6t-1 6q-1 2 -1 6q-1 5 -1.5 10t-0.5 10v345
l101 41v-363q0 -19 2.5 -33.5t15 -20.5t38.5 -1t72 25q24 13 43 24q17 10 32 18.5t20 13.5v296z" />
    <glyph glyph-name="v" unicode="v" horiz-adv-x="503" 
d="M269 89l157 352l57 23l-191 -428l-88 -36l-199 428l89 36l175 -375v0z" />
    <glyph glyph-name="w" unicode="w" horiz-adv-x="779" 
d="M560 89l141 349l58 23l-176 -425l-88 -36l-114 279l-101 -243l-88 -36l-187 428l89 36l163 -375l100 248l-37 91l89 36l151 -375v0z" />
    <glyph glyph-name="x" unicode="x" horiz-adv-x="468" 
d="M448 467l-161 -197l166 -230l-92 -37l-137 190l-131 -159l-83 -34l187 228l-146 202l92 37l117 -162l106 128l82 34v0z" />
    <glyph glyph-name="y" unicode="y" horiz-adv-x="512" 
d="M437 440l65 27l-268 -621q-29 -65 -60.5 -88t-62.5 -23q-15 0 -24 1t-14 3t-7 4v34q20 -5 38 -1q16 3 33 14t30 37q12 25 24.5 51.5t23.5 48.5q12 26 23 50l-233 452l94 38l190 -372z" />
    <glyph glyph-name="z" unicode="z" horiz-adv-x="477" 
d="M118 83h338v-1l-36 -82h-430l338 376h-309l34 79h396l-331 -372v0z" />
    <glyph glyph-name="asciitilde" unicode="~" horiz-adv-x="583" 
d="M50 359q0 -1 4.5 4t12.5 13q6 6 21 16q7 4 14 9t16 9q14 8 39 16q5 2 11 3t11 2q7 2 12.5 3t13.5 1q11 1 22.5 1.5t27.5 -2.5q15 -2 28 -6t24 -9q12 -5 21.5 -9t18.5 -7q5 -2 8.5 -3t8.5 -3t9 -2.5t9 -1.5l9 -2l4 -1l1 -1h1h-2h3q5 -1 10.5 -1t10.5 -1t9 -1h8h15
q8 2 15 3t13 4q6 2 10.5 4.5t8.5 4.5q8 5 11 8.5t3 2.5l21 -14q-1 -2 -4 -5q-2 -2 -5 -6t-7 -8q-5 -4 -9.5 -8.5t-11.5 -9.5q-13 -10 -31 -19q-5 -2 -10.5 -4t-10.5 -4t-10.5 -4t-10.5 -3t-10.5 -2t-10.5 -3h-2h-6l-6 -1h-13q-11 -1 -26 2q-7 1 -13.5 2t-13.5 4
q-13 4 -24.5 9.5t-21.5 10.5q-5 2 -9.5 4.5t-9.5 4.5t-9 4t-8 3q-5 2 -7.5 3.5t-9.5 2.5q-5 2 -11 2.5t-11 2.5q-2 1 -7.5 1t-9.5 1q-5 0 -9.5 0.5t-8.5 -0.5q-9 -1 -17.5 -2t-16.5 -3q-16 -4 -27.5 -10t-19.5 -11t-11 -8.5t-4 -4.5z" />
    <glyph glyph-name="Atilde" unicode="&#xc3;" horiz-adv-x="658" 
d="M119 708q-1 0 14 15q6 6 19 14q5 4 11.5 8.5t14.5 7.5q8 4 16 7.5t18 6.5q5 2 9.5 2.5t9.5 1.5q6 2 10.5 3t12.5 1q10 1 19.5 1t23.5 -2t24.5 -5.5t21.5 -7.5q10 -5 18 -8.5t16 -6.5q4 -2 7.5 -2t7.5 -2t7.5 -2.5t7.5 -1.5l8 -2l4 -1h1h1h-2l2 -1q5 0 9 -0.5t9 -0.5
q5 -1 8.5 -1h6.5h14q6 2 12 3t11 3q6 2 10 4l8 4q8 6 9 7l3 3l18 -12q0 -3 -14 -17q-4 -4 -8.5 -8t-10.5 -8q-5 -5 -12 -8.5t-15 -8.5q-4 -2 -8 -3.5t-9 -3.5t-10 -3t-9 -2q-5 -2 -9 -2.5t-9 -1.5l-2 -1h-5h-5l-11 -1h-11.5t-11.5 2l-12 2t-11 3q-12 4 -22 8.5t-19 8.5
q-5 2 -8.5 4.5t-7.5 3.5q-4 2 -7.5 4t-7.5 3t-6.5 2.5t-8.5 2.5q-5 1 -9.5 2t-9.5 2q-2 1 -6.5 1h-8.5q-4 1 -8 1.5t-8 -0.5q-8 -1 -15 -1.5t-14 -2.5q-14 -4 -24 -9t-17 -10q-4 -2 -5.5 -4t-3.5 -4l-3 -3zM282 632l-262 -632l69 28l65 158h300l89 -192l95 39l-289 626z
M175 236l121 294l135 -294h-256z" />
    <glyph glyph-name="Ntilde" unicode="&#xd1;" horiz-adv-x="675" 
d="M82 709q0 -1 4.5 4.5t12.5 12.5q5 5 10.5 9t12.5 9q6 4 14 9t17 9q9 5 19 9t22 8q5 3 11 3.5t13 2.5q6 1 11.5 2.5t14.5 1.5q12 1 24 1.5t29 -3.5q15 -2 28.5 -6t25.5 -9q11 -5 21.5 -9t19.5 -8q5 -3 9 -3.5t9 -2.5t9 -3t9 -2l9 -1l5 -1l1 -1h1h-2h2q7 -2 12.5 -2
t10.5 -1q10 -1 18 0q4 0 7.5 -0.5t8.5 0.5q16 2 29 6q6 2 10.5 5t9.5 5q8 5 11 9t3 3l22 -15q-1 -3 -4 -6q-2 -3 -5.5 -6t-7.5 -8q-5 -4 -10 -9t-11 -10q-14 -10 -34 -19q-5 -3 -10 -5l-10 -4q-7 -2 -12.5 -4t-10.5 -3t-11 -2.5t-11 -2.5l-2 -1h-6h-6h-13q-8 -1 -14 -0.5
t-14 1.5t-14.5 2.5t-13.5 3.5q-14 5 -26 11t-23 11q-5 2 -9.5 4.5t-9.5 4.5t-9 4t-9 4t-7.5 4t-10.5 3q-5 1 -10.5 1.5t-12.5 1.5q-2 2 -7.5 2t-10.5 1q-5 0 -9.5 0.5t-9.5 -0.5q-9 0 -18 -1t-17 -4q-16 -4 -28 -10t-20 -13q-9 -6 -12 -9l-3 -3zM572 166l-458 504l-74 -30
v-640l49 20v502l471 -522l60 24v643l-48 -20v-481z" />
    <glyph glyph-name="Otilde" unicode="&#xd5;" horiz-adv-x="748" 
d="M158 727q-1 -1 3 3.5t11 11.5q4 3 8.5 6.5t9.5 7.5q6 4 12.5 8t14.5 8q13 7 34 13q5 2 9.5 3t9.5 2q6 1 10.5 2t12.5 2q10 0 19.5 0.5t23.5 -1.5t24.5 -5.5t21.5 -8.5q10 -4 18 -7.5t16 -6.5q4 -2 7.5 -2.5t7.5 -2.5t7.5 -2t7.5 -1l8 -2l4 -1h1l1 -1q2 1 -0.5 0.5
t-1.5 -0.5h2q5 0 9 -0.5t9 -1.5h15q4 0 7 -0.5t7 0.5q6 2 12 2.5t11 2.5q6 2 10 4.5t8 4.5q6 4 9 7t2 2l19 -12q-2 -2 -4 -5q-2 -2 -4.5 -5t-5.5 -7q-4 -3 -8.5 -7t-10.5 -8q-5 -5 -12 -8.5t-15 -8.5q-4 -2 -8 -3.5t-9 -3.5t-10 -3.5t-9 -2.5q-5 -1 -9 -1.5t-9 -2.5h-2
l-5 -1h-5h-11q-6 -1 -11.5 -0.5t-11.5 1.5q-6 2 -12 3t-12 3q-11 3 -21.5 8t-18.5 9q-5 2 -8.5 4t-7.5 4t-7.5 4t-7.5 3t-6.5 2.5t-8.5 2.5q-5 1 -9.5 1.5t-9.5 2.5q-2 1 -6.5 1h-8.5t-8 0.5t-8 0.5q-8 -1 -15 -2t-14 -3q-14 -3 -24 -8t-17 -10q-4 -2 -5.5 -4t-3.5 -4l-3 -3
zM389 679q-70 0 -133 -27t-112 -73.5t-79 -108.5t-34 -133q-5 -71 18 -133t66.5 -108.5t103.5 -73.5t130 -27t133 27t111.5 73.5t79 108.5t34.5 133t-19 133t-66 108.5t-103 73.5t-130 27zM369 30q-44 0 -82 24t-66 65.5t-44.5 97.5t-16.5 120q0 63 16.5 119t44.5 98t66 66
t82 24q43 0 81 -24t66.5 -66t45 -98t16.5 -119q0 -64 -16.5 -120t-45 -97.5t-66.5 -65.5t-81 -24z" />
    <glyph glyph-name="atilde" unicode="&#xe3;" horiz-adv-x="586" 
d="M74 530q0 -1 3.5 3.5t11.5 10.5q3 4 8 7.5t10 7.5q6 3 12 7.5t14 8.5q13 7 34 13q5 2 10 3l10 2t9.5 2t12.5 2q10 0 20 0.5t24 -1.5q24 -4 45 -14q10 -5 18 -8l16 -6q4 -2 7.5 -2.5t7.5 -2.5q5 -2 15 -4l8 -1l4 -1h1l1 -1h-2h2q5 0 9.5 -0.5t9.5 -1.5t8 -0.5t7 0.5
q3 0 6 -0.5t7 0.5q6 1 12.5 2t11.5 3t9 4l8 4q7 5 9.5 8t2.5 2l18 -12q-2 -2 -4 -5q-2 -2 -4.5 -5t-5.5 -7q-4 -3 -8.5 -7t-9.5 -8q-6 -5 -12.5 -8.5t-14.5 -8.5q-5 -2 -9 -3.5t-9 -3.5t-9.5 -3.5t-9.5 -2.5q-10 -2 -18 -4h-2l-4 -1h-6h-11q-5 -1 -11 -0.5t-12 1.5
q-6 2 -12 3t-11 3q-12 3 -22 8t-19 9q-8 5 -16 8q-4 2 -7.5 3.5t-6.5 3.5q-5 1 -7.5 2.5t-7.5 2.5q-12 2 -20 4q-2 1 -6.5 0.5t-8.5 0.5q-4 0 -7.5 0.5t-8.5 0.5q-8 -1 -15 -2t-14 -3q-14 -3 -23.5 -8t-16.5 -10l-6 -4.5t-4 -3.5l-3 -3zM466 83v396q-59 -7 -114 -18
q-47 -9 -98.5 -23.5t-86.5 -33.5q-44 -24 -75 -56t-48.5 -68t-21.5 -73.5t6 -73.5q13 -45 39 -74t57.5 -44t64 -18t59.5 4q47 13 76 34.5t43 33.5q0 -8 1 -11q0 -2 0.5 -3t0.5 -3l3 -12q1 -1 1 -2t1 -2q3 -8 7 -13q6 -8 10 -11q1 -1 2 -1q4 -4 10 -7q1 -1 2 -1q19 -9 46 -9
q37 2 76 14q2 1 4.5 2t4.5 2v29q-25 -8 -39 -8t-21 6t-8.5 17.5t-1.5 26.5zM366 113q-11 -11 -33.5 -28.5t-56.5 -25.5q-28 -7 -58 2t-53.5 32.5t-36.5 59.5t-7 84q6 46 28.5 77t55.5 52t74.5 35t86.5 26v-314z" />
    <glyph glyph-name="ntilde" unicode="&#xf1;" horiz-adv-x="505" 
d="M22 529q0 -1 3.5 3.5t11.5 10.5q3 4 8 7.5t10 7.5q6 3 12 7.5t14 8.5q13 7 34 13q5 2 10 3l10 2t9.5 2t12.5 2q10 0 20 0.5t24 -1.5q24 -4 45 -14q10 -5 18 -8l16 -6q4 -2 7.5 -2.5t7.5 -2.5q5 -2 15 -4l8 -1l4 -1h1l1 -1h-2h2q5 0 9.5 -0.5t9.5 -1.5t8 -0.5t7 0.5
q3 0 6 -0.5t7 0.5q6 1 12.5 2t11.5 3t9 4l8 4q7 5 9.5 8t2.5 2l18 -12q-2 -2 -4 -5q-2 -2 -4.5 -5t-5.5 -7q-4 -3 -8.5 -7t-9.5 -8q-6 -5 -12.5 -8.5t-14.5 -8.5q-5 -2 -9 -3.5t-9 -3.5t-9.5 -3.5t-9.5 -2.5q-10 -2 -18 -4h-2l-4 -1h-6h-11q-5 -1 -11 -0.5t-12 1.5
q-6 2 -12 3t-11 3q-12 3 -22 8t-19 9q-8 5 -16 8q-4 2 -7.5 3.5t-6.5 3.5q-5 1 -7.5 2.5t-7.5 2.5q-12 2 -20 4q-2 1 -6.5 0.5t-8.5 0.5q-4 0 -7.5 0.5t-8.5 0.5q-8 -1 -15 -2t-14 -3q-14 -3 -23.5 -8t-16.5 -10l-6 -4.5t-4 -3.5l-3 -3zM442 408q-1 5 -3 13q-1 1 -1 2t-1 2
q-3 8 -7 13q-4 6 -10 11l-2 2q-6 4 -10 6q0 1 -2 1q-20 11 -47 9q-18 0 -37.5 -4t-39.5 -10q-28 -9 -57 -22.5t-52 -26.5q-27 -15 -53 -31v83l-100 -41v-415l100 41v292q5 4 20 13t32 19q19 11 44 24q46 20 71.5 25.5t38 -0.5t15.5 -20.5t3 -33.5v-48v-6v-49v-257l101 41
v243v39v14v46q0 5 -0.5 10t-1.5 10q0 4 -1 5z" />
    <glyph glyph-name="otilde" unicode="&#xf5;" horiz-adv-x="521" 
d="M49 529q0 -1 3.5 3.5t11.5 10.5q3 4 8 7.5t10 7.5q6 3 12 7.5t14 8.5q13 7 34 13q5 2 10 3l10 2t9.5 2t12.5 2q10 0 20 0.5t24 -1.5q24 -4 45 -14q10 -5 18 -8l16 -6q4 -2 7.5 -2.5t7.5 -2.5q5 -2 15 -4l8 -1l4 -1h1l1 -1h-2h2q5 0 9.5 -0.5t9.5 -1.5t8 -0.5t7 0.5
q3 0 6 -0.5t7 0.5q6 1 12.5 2t11.5 3t9 4l8 4q7 5 9.5 8t2.5 2l18 -12q-2 -2 -4 -5q-2 -2 -4.5 -5t-5.5 -7q-4 -3 -8.5 -7t-9.5 -8q-6 -5 -12.5 -8.5t-14.5 -8.5q-5 -2 -9 -3.5t-9 -3.5t-9.5 -3.5t-9.5 -2.5q-10 -2 -18 -4h-2l-4 -1h-6h-11q-5 -1 -11 -0.5t-12 1.5
q-6 2 -12 3t-11 3q-12 3 -22 8t-19 9q-8 5 -16 8q-4 2 -7.5 3.5t-6.5 3.5q-5 1 -7.5 2.5t-7.5 2.5q-12 2 -20 4q-2 1 -6.5 0.5t-8.5 0.5q-4 0 -7.5 0.5t-8.5 0.5q-8 -1 -15 -2t-14 -3q-14 -3 -23.5 -8t-16.5 -10l-6 -4.5t-4 -3.5l-3 -3zM272 474q-49 0 -93.5 -19t-78.5 -51
t-55 -76t-24 -93q-3 -50 13.5 -93.5t46.5 -75.5t72 -51t91 -19t93.5 19t78.5 51t55 75.5t24 93.5q3 49 -13.5 93t-46.5 76t-72 51t-91 19zM258 31q-29 0 -54.5 16t-44 44t-29.5 65t-11 79t11 79.5t29.5 65t44 43.5t54.5 16t54.5 -16t44 -43.5t29.5 -65t11 -79.5t-11 -79
t-29.5 -65t-44 -44t-54.5 -16z" />
    <glyph glyph-name="tilde" unicode="&#x2dc;" horiz-adv-x="583" 
d="M50 359q0 -1 4.5 4t12.5 13q6 6 21 16q7 4 14 9t16 9q14 8 39 16q5 2 11 3t11 2q7 2 12.5 3t13.5 1q11 1 22.5 1.5t27.5 -2.5q15 -2 28 -6t24 -9q12 -5 21.5 -9t18.5 -7q5 -2 8.5 -3t8.5 -3t9 -2.5t9 -1.5l9 -2l4 -1l1 -1h1h-2h3q5 -1 10.5 -1t10.5 -1t9 -1h8h15
q8 2 15 3t13 4q6 2 10.5 4.5t8.5 4.5q8 5 11 8.5t3 2.5l21 -14q-1 -2 -4 -5q-2 -2 -5 -6t-7 -8q-5 -4 -9.5 -8.5t-11.5 -9.5q-13 -10 -31 -19q-5 -2 -10.5 -4t-10.5 -4t-10.5 -4t-10.5 -3t-10.5 -2t-10.5 -3h-2h-6l-6 -1h-13q-11 -1 -26 2q-7 1 -13.5 2t-13.5 4
q-13 4 -24.5 9.5t-21.5 10.5q-5 2 -9.5 4.5t-9.5 4.5t-9 4t-8 3q-5 2 -7.5 3.5t-9.5 2.5q-5 2 -11 2.5t-11 2.5q-2 1 -7.5 1t-9.5 1q-5 0 -9.5 0.5t-8.5 -0.5q-9 -1 -17.5 -2t-16.5 -3q-16 -4 -27.5 -10t-19.5 -11t-11 -8.5t-4 -4.5z" />
    <glyph glyph-name="endash" unicode="&#x2013;" horiz-adv-x="564" 
d="M84 359h430l-34 -79h-430l34 79v0z" />
    <glyph glyph-name="emdash" unicode="&#x2014;" horiz-adv-x="704" 
d="M654 359l-34 -79h-570l34 79h570z" />
    <glyph glyph-name="quoteleft" unicode="&#x2018;" horiz-adv-x="177" 
d="M91 626q18 3 29 -15.5t5 -39.5q-7 -21 -26.5 -35t-39.5 -12q-12 0 -22 8l-4 4q-14 13 -12 37t12 50t22 48t18 30l29 11q-1 -1 -8 -15.5t-12 -31t-5 -29t14 -10.5z" />
    <glyph glyph-name="quoteright" unicode="&#x2019;" horiz-adv-x="207" 
d="M145 700q14 -13 11.5 -37t-12 -50t-21.5 -48t-18 -30l-29 -11q1 1 7.5 15.5t12 31t5 29t-13.5 10.5q-9 -2 -16.5 2.5t-12.5 13t-6.5 18.5t1.5 21q7 21 26.5 35t39.5 12q12 0 22 -8z" />
    <glyph glyph-name="quotedblleft" unicode="&#x201c;" horiz-adv-x="315" 
d="M229 626q18 3 29 -15.5t5 -39.5q-7 -21 -26.5 -35t-39.5 -12q-12 0 -22 8l-4 4q-14 13 -12 37t11.5 50t22 48t18.5 30l28 11q-1 -1 -7.5 -15.5t-11.5 -31t-5 -29t14 -10.5zM91 626q18 3 29 -15.5t5 -39.5q-7 -21 -26.5 -35t-39.5 -12q-12 0 -22 8l-4 4q-14 13 -12 37
t12 50t22 48t18 30l29 11q-1 -1 -8 -15.5t-12 -31t-5 -29t14 -10.5z" />
    <glyph glyph-name="quotedblright" unicode="&#x201d;" horiz-adv-x="345" 
d="M145 700q14 -13 11.5 -37t-12 -50t-21.5 -48t-18 -30l-29 -11q1 1 7.5 15.5t12 31t5 29t-13.5 10.5q-9 -2 -16.5 2.5t-12.5 13t-6.5 18.5t1.5 21q7 21 26.5 35t39.5 12q12 0 22 -8zM283 700q14 -13 11.5 -37t-12 -50t-21.5 -48t-18 -30l-29 -11q1 1 7.5 15.5t12 31t5 29
t-13.5 10.5q-9 -2 -16.5 2.5t-12.5 13t-6.5 18.5t1.5 21q7 21 26.5 35t39.5 12q12 0 22 -8z" />
    <glyph glyph-name="fraction" unicode="&#x2044;" horiz-adv-x="351" 
d="M240 674l101 41l-231 -674l-100 -41z" />
    </font>
</defs>
</svg>
