<svg width="21" height="21" viewBox="0 0 21 21" fill="none" xmlns="http://www.w3.org/2000/svg">
<path d="M19.3008 15.1691C19.2208 14.9523 18.9803 14.8414 18.7635 14.9214L14.4129 16.5267C14.1961 16.6067 14.0853 16.8473 14.1653 17.064C14.2276 17.233 14.3876 17.3377 14.5578 17.3377C14.6059 17.3377 14.6548 17.3293 14.7026 17.3117L19.0532 15.7064C19.2699 15.6264 19.3808 15.3858 19.3008 15.1691Z" fill="#333333"/>
<path d="M13.7541 17.2158C13.6742 16.9989 13.4336 16.8881 13.2168 16.9681L13.0325 17.036C12.8158 17.116 12.7049 17.3566 12.7849 17.5733C12.8472 17.7423 13.0072 17.8469 13.1774 17.8469C13.2255 17.8469 13.2744 17.8386 13.3222 17.821L13.5064 17.753C13.7232 17.673 13.8341 17.4325 13.7541 17.2158Z" fill="#333333"/>
<path d="M19.3008 13.4645C19.2208 13.2477 18.9803 13.1369 18.7635 13.2168L15.3254 14.4854C15.1086 14.5654 14.9978 14.806 15.0777 15.0227C15.1401 15.1917 15.3 15.2963 15.4703 15.2963C15.5183 15.2963 15.5673 15.288 15.615 15.2704L19.0532 14.0018C19.2699 13.9218 19.3808 13.6812 19.3008 13.4645Z" fill="#333333"/>
<path d="M19.3008 11.7776C19.2208 11.5608 18.9803 11.45 18.7635 11.5299L15.3254 12.7985C15.1086 12.8785 14.9978 13.1191 15.0777 13.3358C15.1401 13.5048 15.3 13.6094 15.4703 13.6094C15.5183 13.6094 15.5673 13.6011 15.615 13.5835L19.0532 12.3149C19.2699 12.2349 19.3808 11.9943 19.3008 11.7776Z" fill="#333333"/>
<path d="M20.7265 4.12317L10.6448 0.40322C10.5514 0.368767 10.4486 0.368767 10.3552 0.40322L0.273533 4.12317L0.273451 4.1235C0.240434 4.13572 0.208687 4.15188 0.179156 4.17243C0.0668965 4.25069 0 4.37886 0 4.51565V16.4843C0 16.6594 0.109143 16.8161 0.273492 16.8767L10.3552 20.5967C10.4022 20.614 10.4512 20.6225 10.5 20.6225C10.5492 20.6225 10.5982 20.6136 10.6447 20.5964L10.6448 20.5967L20.7265 16.8767C20.8909 16.8161 21 16.6595 21 16.4843V4.51565C21 4.34043 20.8909 4.18384 20.7265 4.12317ZM10.0817 19.604L0.836637 16.1927V5.11592L2.71909 5.81056V10.8792C2.71909 11.0544 2.82823 11.211 2.99258 11.2717L7.51049 12.9387C7.5575 12.9561 7.60651 12.9646 7.65528 12.9646C7.73969 12.9646 7.82336 12.939 7.89452 12.8894C8.00674 12.8112 8.07364 12.6831 8.07364 12.5463V7.78628L10.0816 8.52719V19.604H10.0817ZM7.23704 7.47756V11.9459L3.55577 10.5876V6.1192L7.23704 7.47756ZM4.34589 5.51561L7.65536 4.29445L10.9648 5.51561L7.65536 6.73677L4.34589 5.51561ZM10.5 7.78972L8.85933 7.18433L12.3181 5.90805C12.4825 5.84739 12.5916 5.69079 12.5916 5.51557C12.5916 5.34035 12.4825 5.18376 12.3181 5.12309L7.80019 3.45605C7.70671 3.4216 7.60405 3.4216 7.51054 3.45605L3.1329 5.07141L1.6268 4.51565L10.5 1.24162L19.3732 4.51569L10.5 7.78972ZM20.1634 16.1927L10.9184 19.6039V8.52719L20.1634 5.11592V16.1927Z" fill="#333333"/>
</svg>
