<svg width="21" height="21" viewBox="0 0 21 21" fill="none" xmlns="http://www.w3.org/2000/svg">
<path d="M18.801 0H1.7092C0.752028 0 0 0.752028 0 1.7092V18.8011C0 19.7582 0.752028 20.5102 1.7092 20.5102H9.57146H13.6735H18.8011C19.7582 20.5102 20.5102 19.7582 20.5102 18.801V1.7092C20.5102 0.752028 19.7582 0 18.801 0ZM10.2551 19.8265V12.9898H7.5204V10.2551H10.2551V7.86226C10.2551 5.91379 11.7592 4.27297 13.6735 4.10204H16.75V6.83675H14.0153C13.4341 6.83675 12.9898 7.28113 12.9898 7.86226V10.2551H16.4082V12.9898H12.9898V19.8266H10.2551V19.8265ZM19.8265 18.801C19.8265 19.3822 19.3822 19.8265 18.801 19.8265H13.6735V13.6735H17.0918V9.57142H13.6735V7.86222C13.6735 7.65712 13.8102 7.5204 14.0153 7.5204H17.4337V3.41836H13.6393C11.349 3.62346 9.57142 5.57193 9.57142 7.86222V9.57142H6.83671V13.6735H9.57142V19.8265H1.7092C1.12806 19.8265 0.683687 19.3822 0.683687 18.801V1.7092C0.683687 1.12806 1.12806 0.683687 1.7092 0.683687H18.8011C19.3822 0.683687 19.8266 1.12806 19.8266 1.7092V18.801H19.8265Z" fill="white"/>
</svg>
