<svg width="20" height="20" viewBox="0 0 20 20" fill="none" xmlns="http://www.w3.org/2000/svg">
<path d="M19.4116 0.549316C15.6952 0.685879 12.6813 1.48994 10.3772 2.72947L9.22601 4.65447L9.03199 3.55709C8.62046 3.84623 8.23847 4.1517 7.88691 4.47143L7.3132 6.23158L7.11664 5.24896C5.52875 7.02658 4.75687 9.1499 4.81437 11.339C6.66097 7.68018 9.9864 4.59189 13.0944 2.70018L13.474 3.324C10.5321 5.11455 7.36515 8.05846 5.57609 11.4588H6.05093C6.82359 10.9892 7.58062 10.4096 8.33242 9.76189L7.14961 9.8242L9.2675 8.92209C11.0986 7.21752 12.9185 5.21217 14.8657 3.52053L13.9098 3.31779L16.1168 2.49631C17.1658 1.69611 18.2575 1.01803 19.4115 0.549316H19.4116ZM2.32539 12.1887V13.3765H7.57812V12.1887H2.32539ZM3.12132 14.1064L1.8457 15.227L0.975388 18.5461L1.54297 19.1662H8.46562L9.03437 18.5461L8.16406 15.2271L6.95679 14.1065H3.12132V14.1064Z" fill="white"/>
</svg>
