<svg width="19" height="20" viewBox="0 0 19 20" fill="none" xmlns="http://www.w3.org/2000/svg">
<path d="M14.0027 0L16.2517 1.11899C16.1528 1.50751 15.8379 2.12475 15.3476 2.78809C14.7494 3.60003 13.9263 4.50865 13.0806 5.34566C12.2395 6.18714 11.3669 6.96596 10.6742 7.52546C10.3279 7.80297 10.022 8.03124 9.79259 8.17895C9.68014 8.25057 9.58569 8.30875 9.52271 8.34008C9.50922 8.34456 9.50922 8.34456 9.50023 8.34456C9.49123 8.34456 9.49123 8.34456 9.47773 8.34008C9.41476 8.30875 9.3203 8.25057 9.20786 8.17895C8.97846 8.03124 8.67259 7.80297 8.32625 7.52546C7.63355 6.96596 6.76094 6.18714 5.91982 5.34566C5.07419 4.50865 4.25106 3.60003 3.65283 2.78853C3.16254 2.12475 2.84768 1.50751 2.74873 1.11899L4.99773 0C5.65444 1.33071 6.31564 2.78137 6.98584 4.02972C7.71452 5.39489 8.40721 6.52284 9.3203 6.97939L9.50023 7.06891L9.68014 6.97939C10.5932 6.52284 11.2859 5.39489 12.0146 4.02972C12.6848 2.78137 13.346 1.33026 14.0027 0ZM9.50023 4.8712C9.85557 4.8712 10.1974 4.90254 10.5213 4.95625C10.1524 5.50232 9.80159 5.91858 9.50023 6.14238C9.19886 5.91858 8.84802 5.50232 8.47918 4.95625C8.80304 4.90254 9.14488 4.8712 9.50023 4.8712ZM13.2381 6.3259C14.2861 7.34194 14.8528 8.76978 14.8528 10.1976V10.2245C13.3685 9.68735 11.4389 9.4367 9.50023 9.4367C7.56159 9.4367 5.63195 9.68735 4.14761 10.2245V10.1976C4.14761 8.76978 4.71435 7.34194 5.76239 6.3259C6.49106 7.02415 7.21074 7.65974 7.81797 8.14762C8.17781 8.43856 8.49717 8.68026 8.76255 8.85035C8.89299 8.93987 9.00994 9.007 9.12239 9.06072C9.23484 9.11443 9.3203 9.16814 9.50023 9.16814C9.68014 9.16814 9.76561 9.11443 9.87806 9.06072C9.99051 9.007 10.1075 8.93987 10.2379 8.85035C10.5033 8.68026 10.8226 8.43856 11.1825 8.14762C11.7897 7.65974 12.5094 7.02415 13.2381 6.3259ZM16.1303 8.04019C17.0569 8.93539 17.5471 9.2129 19 9.70973C18.4333 10.8243 17.835 11.8179 16.4361 12.449L15.658 10.1215C15.6535 9.86639 15.6355 9.61126 15.5995 9.35613L16.1303 8.04019ZM2.87017 8.04019L3.40094 9.35613C3.36495 9.61126 3.34696 9.86639 3.34246 10.1215L2.56431 12.449C1.16498 11.8179 0.566748 10.8243 0 9.70973C1.45285 9.2129 1.94314 8.93539 2.87017 8.04019ZM9.90504 10.2469C11.9336 10.2871 13.9218 10.6363 15.1767 11.2405L16.4541 15.0451L14.5065 14.1589C14.3311 13.1025 14.2231 12.0865 14.2231 11.5404V10.8869L13.6384 11.1779C12.3834 11.8045 11.142 12.1447 9.90504 12.2073V10.2469ZM9.0954 10.2469V12.2073C7.85845 12.1447 6.61701 11.8045 5.36207 11.1779L4.77733 10.8869V11.5404C4.77733 12.0865 4.66937 13.1025 4.49395 14.1589L2.54632 15.0451L3.82375 11.2405C5.07869 10.6363 7.06681 10.2871 9.0954 10.2469ZM13.4405 12.1626C13.4989 12.9951 13.6564 14.1096 13.8723 15.1883C14.0072 15.8776 14.1691 16.5401 14.3446 17.0861C14.52 17.6367 14.6729 18.0619 14.9698 18.3618L15.0912 18.4782H15.2577C15.8919 18.4782 17.0074 18.5319 17.6281 18.9079C17.5471 18.9705 17.4122 19.0511 17.2368 19.1272C16.814 19.3062 16.1618 19.4718 15.3701 19.6016C13.7868 19.8657 11.6413 20 9.50023 20C7.35918 20 5.21363 19.8657 3.63034 19.6016C2.83869 19.4718 2.18603 19.3062 1.76322 19.1272C1.58779 19.0511 1.45285 18.9705 1.37189 18.9079C1.98812 18.5319 3.10857 18.4782 3.74279 18.4782H3.90921L4.03066 18.3618C4.32753 18.0619 4.48046 17.6367 4.65588 17.0861C4.8313 16.5401 4.99323 15.8776 5.12817 15.1883C5.34407 14.1096 5.5015 12.9951 5.55998 12.1626C8.16882 13.295 10.8316 13.295 13.4405 12.1626ZM4.31853 15.1257C4.18809 15.7568 4.03965 16.361 3.88672 16.8444C3.75628 17.2518 3.61234 17.5293 3.52238 17.6725C3.01861 17.668 2.27599 17.6725 1.58779 17.9008L2.19502 16.0925L4.31853 15.1257ZM14.6819 15.1257L16.805 16.0925L17.4122 17.9008C16.724 17.6725 15.9818 17.668 15.4781 17.6725C15.3881 17.5293 15.2442 17.2518 15.1137 16.8444C14.9608 16.361 14.8124 15.7568 14.6819 15.1257Z" fill="#F2994A"/>
</svg>
