<svg width="20" height="19" viewBox="0 0 20 19" fill="none" xmlns="http://www.w3.org/2000/svg">
<path d="M0.771484 0.564004C3.09719 4.95033 6.33828 8.4683 9.84492 11.9983L9.98656 12.1448L9.98902 12.1424C10.8416 12.999 11.7093 13.8581 12.583 14.7303C11.8464 15.3089 11.0605 15.8318 10.2416 16.3049L11.3562 17.4194L14.0404 14.7351C15.6942 15.8147 17.0204 17.2213 18.1066 18.8683L19.2029 17.7722C17.5439 16.6983 16.088 15.4204 15.0611 13.7146L17.7539 11.0217L16.6394 9.90725C16.2052 10.7609 15.6858 11.5485 15.0976 12.2742C13.3846 10.5632 11.7202 8.92096 10.0146 7.37299C10.0059 7.36506 9.99773 7.3565 9.98898 7.34857C7.17281 4.79494 4.23887 2.4965 0.771484 0.563965V0.564004ZM19.2041 0.564004C15.9604 2.37182 13.1837 4.50072 10.5334 6.85916L11.4246 7.70143L13.6437 5.48221L14.1601 5.99732L11.9555 8.20201L12.9162 9.10771C15.3304 6.49365 17.51 3.75928 19.2041 0.563965V0.564004ZM6.33184 5.48221L14.1662 13.3154C13.9959 13.489 13.8209 13.6589 13.6426 13.8245L5.81543 5.99729L6.33184 5.48221ZM3.33613 9.90721L2.22285 11.0217L4.91453 13.7134C3.88758 15.4194 2.43289 16.6983 0.773906 17.7722L1.87012 18.8683C2.95633 17.2213 4.28254 15.8147 5.93629 14.7351L8.62059 17.4194L9.73504 16.3049C8.91621 15.8318 8.13035 15.3088 7.39375 14.7302C8.0916 14.0337 8.78477 13.3461 9.47019 12.6611L8.49977 11.6589L6.33297 13.8256C6.15465 13.6601 5.98086 13.4889 5.81055 13.3154L7.99195 11.134L7.03375 10.1428C6.31969 10.8403 5.60398 11.5514 4.87914 12.2754C4.29055 11.5493 3.77055 10.7614 3.33617 9.90721H3.33613Z" fill="white"/>
</svg>
