<svg width="21" height="19" viewBox="0 0 21 19" fill="none" xmlns="http://www.w3.org/2000/svg">
<path d="M20.8255 2.8367C20.6848 2.74134 20.4985 2.74651 20.3626 2.84902C20.1842 2.98412 19.8941 3.0914 19.5818 3.17405C20.3952 2.26254 20.4127 1.65381 20.4039 1.51395C20.3948 1.36931 20.3078 1.24097 20.1766 1.17938C20.0451 1.1174 19.8909 1.1325 19.7737 1.21753C18.8586 1.88268 17.9471 2.02294 17.4052 2.03725C16.5731 1.24097 15.4928 0.804688 14.3428 0.804688C11.8809 0.804688 9.87829 2.83432 9.87829 5.32884C9.87829 5.54341 9.89339 5.75757 9.92319 5.96975C5.65652 5.92168 2.19168 1.83341 2.15592 1.79089C2.07248 1.69156 1.94612 1.63831 1.81659 1.64984C1.68705 1.66096 1.57143 1.73447 1.50666 1.84732C0.278869 3.97708 1.10058 5.84777 1.85155 6.91901C1.71884 6.84828 1.61116 6.77835 1.54679 6.73107C1.42759 6.64206 1.26825 6.62736 1.13395 6.69332C1.00005 6.75928 0.914619 6.89437 0.911837 7.04338C0.878858 9.07301 1.85553 10.2356 2.77419 10.8785C2.6518 10.867 2.52744 10.9123 2.4424 11.0049C2.34704 11.1086 2.31327 11.2552 2.35459 11.3899C2.98915 13.4668 4.54713 14.1725 5.5385 14.4121C3.50013 15.9991 0.500189 15.4881 0.46721 15.4826C0.286021 15.4504 0.107217 15.5457 0.0333107 15.7138C-0.0401978 15.8815 0.00986743 16.0782 0.15609 16.1894C2.3077 17.8316 4.8813 18.1952 6.74007 18.1952C8.14627 18.1952 9.144 17.987 9.23936 17.966C18.6556 15.7345 18.9206 7.10934 18.8988 5.69598C20.6666 4.05218 20.9427 3.42596 20.9852 3.271C21.0309 3.1069 20.9666 2.93206 20.8255 2.8367ZM18.2277 5.23467C18.1391 5.31612 18.0926 5.43334 18.1005 5.55374C18.1255 5.93519 18.6071 14.9298 9.06413 17.1911C9.02082 17.2003 5.22738 17.9918 1.93897 16.3627C3.32848 16.3241 5.32076 15.9602 6.70868 14.4018C6.81358 14.2846 6.83901 14.1161 6.77385 13.973C6.70948 13.8312 6.56762 13.7402 6.41226 13.7402C6.41107 13.7402 6.40948 13.7402 6.40829 13.7402C6.38842 13.7529 4.30197 13.7378 3.34676 11.7531C3.73139 11.7749 4.20581 11.7511 4.58369 11.5771C4.73945 11.5051 4.83123 11.3418 4.81216 11.1714C4.79309 11.0013 4.66673 10.8626 4.49905 10.8273C4.39217 10.8046 2.0693 10.2853 1.74427 7.75144C2.09672 7.90561 2.5477 8.03157 2.99352 7.96362C3.14689 7.94058 3.27245 7.83051 3.31577 7.68151C3.35908 7.53251 3.31179 7.37198 3.19458 7.27026C3.09524 7.18364 0.913824 5.245 1.94811 2.74452C3.071 3.92264 6.39677 6.98417 10.4262 6.75292C10.5442 6.74616 10.6535 6.68656 10.7238 6.5912C10.7938 6.49584 10.8176 6.37425 10.789 6.25942C10.7127 5.95545 10.6738 5.64234 10.6738 5.32924C10.6738 3.27259 12.3204 1.59977 14.344 1.59977C15.3338 1.59977 16.2624 1.99473 16.9582 2.71233C17.0313 2.78783 17.1318 2.83114 17.2367 2.83313C17.6579 2.83909 18.35 2.78942 19.132 2.47591C18.9063 2.75684 18.5749 3.09339 18.0874 3.47642C17.9495 3.5849 17.8991 3.77046 17.963 3.93377C18.027 4.09747 18.1923 4.20038 18.3648 4.18489C18.4573 4.17734 18.9294 4.13601 19.463 4.02039C19.1714 4.33349 18.7728 4.73322 18.2277 5.23467Z" fill="white"/>
</svg>
