<svg width="21" height="15" viewBox="0 0 21 15" fill="none" xmlns="http://www.w3.org/2000/svg">
<path d="M10.7465 14.6743C10.7461 14.6743 10.7465 14.6743 10.7465 14.6743C8.41409 14.6743 5.87483 14.6006 3.19973 14.4565C1.61934 14.3698 0.393412 13.1514 0.21891 11.493C-0.0729699 8.72254 -0.0729699 5.92572 0.21891 3.18008C0.393045 1.53545 1.61732 0.317056 3.19618 0.21776C7.8098 -0.0725868 12.557 -0.0725868 17.3128 0.21776C18.9102 0.314665 20.1069 1.50431 20.2917 3.17848C20.5828 5.82918 20.5832 8.62564 20.292 11.4918C20.1238 13.1491 18.9283 14.3403 17.3172 14.4557C15.2896 14.6006 13.0789 14.6743 10.7465 14.6743ZM10.2009 0.787361C7.876 0.787361 5.53569 0.860607 3.24503 1.0044C2.03847 1.08004 1.13715 1.98804 1.00206 3.26313C0.716061 5.95361 0.716061 8.69453 1.00206 11.4106C1.13715 12.696 2.0373 13.6036 3.2419 13.6698C5.90284 13.8131 8.42789 13.8865 10.7458 13.8865C13.0596 13.8865 15.2514 13.8136 17.2605 13.6702C18.4761 13.5827 19.3794 12.6755 19.5074 11.4122C19.7934 8.60118 19.7934 5.86026 19.5078 3.26472C19.3672 1.98565 18.4655 1.07728 17.2648 1.0044C14.9032 0.860239 12.5262 0.787361 10.2009 0.787361ZM8.2486 4.54655V9.95313L13.4405 7.26817L8.2486 4.54655Z" fill="white"/>
</svg>
